<svg class="css-ze2te4 css-qd6ojx" viewBox="0 0 45.60852041886929 36.43136524644027"><g transform="translate(-0.6792758360257127, -5.267853422240222) scale(0.05545108865516023)" class="css-11tut30" fill="#d94343"><defs xmlns="http://www.w3.org/2000/svg"></defs><g xmlns="http://www.w3.org/2000/svg"><path class="fil0" d="M831 436l-311 311c-3,3 -6,4 -10,4l-166 1c-4,0 -8,-2 -10,-4l-318 -318c-5,-6 -5,-14 0,-20l311 -311c3,-2 6,-4 10,-4l166 0c4,0 8,2 10,4l318 318c5,5 5,14 0,19zm-372 -296l-78 0 39 38 39 -38zm-1 497l55 55 243 -243 -110 0 -188 188zm-6 -427l194 194 110 0 -250 -249 -54 55zm-211 210l186 185 179 -178 -186 -186 -179 179zm-150 -22l110 0 188 -188 -55 -55 -243 243zm297 309l78 0 -39 -39 -39 39zm7 -70l-194 -195 -110 0 250 250 54 -55z" style="fill: {{COLOR}};"></path></g></g></svg>